<svg width="65" height="46" viewBox="0 0 65 46" fill="none" xmlns="http://www.w3.org/2000/svg">
<path d="M49.0901 28.6764C44.5722 28.6764 40.8968 32.3518 40.8968 36.8697C40.8968 41.3875 44.5722 45.063 49.0901 45.063C53.6088 45.063 57.2834 41.3875 57.2834 36.8697C57.2834 32.3518 53.608 28.6764 49.0901 28.6764ZM49.0901 40.9663C46.8309 40.9663 44.9935 39.1289 44.9935 36.8697C44.9935 34.6104 46.8309 32.773 49.0901 32.773C51.3494 32.773 53.1868 34.6104 53.1868 36.8697C53.1868 39.129 51.3494 40.9663 49.0901 40.9663Z" fill="white"/>
<path d="M21.096 28.6764C16.5782 28.6764 12.9027 32.3518 12.9027 36.8697C12.9027 41.3875 16.5782 45.063 21.096 45.063C25.6139 45.063 29.2894 41.3875 29.2894 36.8697C29.2894 32.3518 25.6139 28.6764 21.096 28.6764ZM21.096 40.9663C18.8368 40.9663 16.9994 39.1289 16.9994 36.8697C16.9994 34.6104 18.8368 32.773 21.096 32.773C23.3547 32.773 25.1927 34.6104 25.1927 36.8697C25.1927 39.129 23.3553 40.9663 21.096 40.9663Z" fill="white"/>
<path d="M54.6069 5.22458C54.2587 4.53294 53.5507 4.0966 52.7764 4.0966H41.9886V8.19325H51.5132L57.0908 19.2869L60.7519 17.4461L54.6069 5.22458Z" fill="white"/>
<path d="M42.9451 34.8898H27.4461V38.9864H42.9451V34.8898Z" fill="white"/>
<path d="M14.9526 34.8898H7.85182C6.72041 34.8898 5.80356 35.8068 5.80356 36.938C5.80356 38.0695 6.72054 38.9863 7.85182 38.9863H14.9527C16.0841 38.9863 17.0009 38.0693 17.0009 36.938C17.0009 35.8066 16.084 34.8898 14.9526 34.8898Z" fill="white"/>
<path d="M64.5698 22.3676L60.5408 17.1785C60.1537 16.6787 59.5563 16.3865 58.9233 16.3865H44.0388V2.04826C44.0388 0.916855 43.1218 0 41.9905 0H7.85182C6.72041 0 5.80356 0.916982 5.80356 2.04826C5.80356 3.17954 6.72054 4.09652 7.85182 4.09652H39.9421V18.4347C39.9421 19.5661 40.8591 20.483 41.9904 20.483H57.9202L60.9032 24.3256V34.8895H55.2362C54.1048 34.8895 53.1879 35.8065 53.1879 36.9378C53.1879 38.0692 54.1049 38.986 55.2362 38.986H62.9515C64.0829 38.986 64.9998 38.069 64.9999 36.9378V23.6239C64.9999 23.1692 64.8483 22.7268 64.5698 22.3676Z" fill="white"/>
<path d="M14.8179 24.5117H5.39552C4.26411 24.5117 3.34726 25.4286 3.34726 26.5599C3.34726 27.6913 4.26424 28.6082 5.39552 28.6082H14.8177C15.9491 28.6082 16.866 27.6912 16.866 26.5599C16.8661 25.4286 15.9491 24.5117 14.8179 24.5117Z" fill="white"/>
<path d="M19.5273 16.4548H2.04826C0.916983 16.4548 0 17.3717 0 18.5031C0 19.6345 0.916983 20.5514 2.04826 20.5514H19.5273C20.6587 20.5514 21.5756 19.6344 21.5756 18.5031C21.5756 17.3719 20.6587 16.4548 19.5273 16.4548Z" fill="white"/>
<path d="M22.8745 8.39808H5.39552C4.26411 8.39808 3.34726 9.31507 3.34726 10.4463C3.34726 11.5777 4.26424 12.4946 5.39552 12.4946H22.8745C24.006 12.4946 24.9228 11.5776 24.9228 10.4463C24.9229 9.31507 24.006 8.39808 22.8745 8.39808Z" fill="white"/>
</svg>
