<svg width="74" height="74" viewBox="0 0 74 74" fill="none" xmlns="http://www.w3.org/2000/svg">
<g clip-path="url(#clip0)">
<path d="M70.6199 30.6134C69.2016 29.6061 68.7143 27.6918 69.4611 26.0615C70.5491 23.687 70.4165 20.8116 69.1151 18.5574C67.8172 16.309 65.499 14.8214 62.9143 14.5779C61.0951 14.4066 59.6004 12.974 59.4375 11.2456C59.1938 8.66092 57.7063 6.34307 55.4581 5.04501C53.2095 3.74695 50.4583 3.61778 48.0984 4.69911C46.516 5.42429 44.6016 4.87221 43.5464 3.3866C42.0434 1.27002 39.5961 0.00634766 37 0.00634766C34.4039 0.00634766 31.9566 1.27002 30.4533 3.3866C29.3983 4.87221 27.4836 5.42414 25.9014 4.69911C23.5416 3.61778 20.7902 3.7468 18.5416 5.04501C16.2934 6.34293 14.8059 8.66092 14.5622 11.2456C14.3995 12.974 12.9048 14.4066 11.0857 14.5779C8.50098 14.8215 6.18285 16.3091 4.88479 18.5575C3.58354 20.8118 3.45091 23.687 4.53889 26.0617C5.28588 27.6918 4.79853 29.6061 3.38011 30.6136C1.26353 32.1166 0 34.5641 0 37.1601C0 39.7561 1.26353 42.2035 3.38025 43.7067C4.79853 44.7141 5.28588 46.6284 4.53903 48.2586C3.4577 50.6187 3.58701 53.3698 4.88508 55.6185C6.18314 57.8667 8.50113 59.3543 11.0858 59.5979C12.8377 59.7631 14.3975 61.3226 14.5626 63.0747C14.8064 65.6592 16.2938 67.9772 18.542 69.2753C20.7905 70.5735 23.5418 70.7025 25.9017 69.6213C27.611 68.8385 29.4824 69.2471 30.4538 70.6147C31.9569 72.7313 34.4043 73.9951 37.0004 73.9951C39.5966 73.9951 42.0439 72.7314 43.5471 70.6148C44.5185 69.247 46.3909 68.8385 48.099 69.6215C50.459 70.7028 53.2103 70.5735 55.4588 69.2754C57.707 67.9775 59.1945 65.6595 59.4383 63.0748C59.6034 61.3229 61.1631 59.7632 62.915 59.598C65.4997 59.3544 67.8177 57.8668 69.1159 55.6185C70.4137 53.3701 70.5432 50.6188 69.4618 48.2588C68.7148 46.6285 69.2022 44.7142 70.6206 43.7069C72.7372 42.2037 74.0009 39.7564 74.0009 37.1602C74.0009 34.5641 72.7365 32.1166 70.6199 30.6134ZM68.11 40.1728C64.9965 42.384 63.9075 46.544 65.5205 50.0643C66.0182 51.1504 65.9586 52.4165 65.3613 53.451C64.7639 54.4857 63.6971 55.1703 62.5077 55.2824C58.6599 55.6449 55.4848 58.82 55.1223 62.6678C55.0102 63.8572 54.3255 64.924 53.291 65.5214C52.2563 66.1189 50.9902 66.1782 49.9042 65.6806C46.2753 64.0177 42.2073 65.0145 40.0127 68.1048C39.3209 69.0788 38.1948 69.6603 37 69.6603C35.8052 69.6603 34.6791 69.0789 33.9873 68.1048C32.5032 66.015 30.1628 64.8826 27.6804 64.8826C26.492 64.8826 25.2706 65.1423 24.0957 65.6806C23.0097 66.1782 21.7436 66.1186 20.709 65.5214C19.6745 64.9241 18.99 63.8574 18.8777 62.6679C18.5152 58.8201 15.3401 55.6451 11.4923 55.2824C10.3029 55.1703 9.23613 54.4857 8.63882 53.4512C8.04137 52.4165 7.98185 51.1504 8.47946 50.0643C10.0925 46.544 9.00351 42.3841 5.88998 40.1728C4.916 39.4811 4.33458 38.3548 4.33458 37.1601C4.33458 35.9653 4.91599 34.8392 5.89012 34.1474C9.00365 31.9362 10.0926 27.7761 8.4796 24.256C7.98228 23.1705 8.04614 21.7512 8.63882 20.7248C9.23627 19.6901 10.303 19.0055 11.4924 18.8934C13.345 18.7189 15.1092 17.9064 16.46 16.6056C17.8437 15.2732 18.7026 13.5141 18.8778 11.6525C18.99 10.4631 19.6747 9.39635 20.7092 8.7989C21.7437 8.2016 23.0097 8.14207 24.0959 8.63968C27.5687 10.2309 31.7286 9.07704 33.9875 5.89647C34.6791 4.92249 35.8054 4.34093 37.0001 4.34093C38.1949 4.34093 39.321 4.92234 40.0128 5.89647C41.5902 8.11751 44.0941 9.35026 46.6442 9.34997C47.7459 9.34997 48.8567 9.11966 49.9043 8.63968C50.9903 8.14207 52.2564 8.2016 53.291 8.7989C54.3255 9.39621 55.0101 10.463 55.1223 11.6524C55.2977 13.5141 56.1564 15.2732 57.5401 16.6056C58.8909 17.9064 60.6551 18.7189 62.5077 18.8934C63.6971 19.0055 64.7639 19.6901 65.3612 20.7246C65.954 21.7512 66.0179 23.1704 65.5205 24.256C63.9075 27.7763 64.9965 31.9362 68.11 34.1475C69.084 34.8393 69.6656 35.9656 69.6656 37.1602C69.6656 38.3548 69.084 39.4811 68.11 40.1728Z" fill="white"/>
<path fill-rule="evenodd" clip-rule="evenodd" d="M15.8151 26C19.7841 18.2902 27.7906 13.0095 37 13.0095C46.2094 13.0095 54.2159 18.2902 58.1849 26H53.1595C49.6494 20.7807 43.7156 17.3441 37 17.3441C30.2844 17.3441 24.3506 20.7807 20.8404 26H15.8151ZM16.4091 49C20.5493 56.0734 28.2291 60.8344 37 60.8344C45.7709 60.8344 53.4507 56.0734 57.5908 49H52.3631C48.7897 53.5626 43.2314 56.4998 37 56.4998C30.7686 56.4998 25.2103 53.5626 21.6369 49H16.4091Z" fill="white"/>
<path d="M18.0182 44C17.8982 44 17.7902 43.958 17.6942 43.874C17.6102 43.778 17.5682 43.67 17.5682 43.55V34.982L15.1022 36.872C15.0182 36.944 14.9282 36.98 14.8322 36.98C14.7002 36.98 14.5802 36.908 14.4722 36.764L13.4102 35.378C13.3502 35.282 13.3202 35.192 13.3202 35.108C13.3202 34.94 13.3922 34.814 13.5362 34.73L17.6762 31.526C17.8082 31.442 17.9522 31.4 18.1082 31.4H20.3582C20.4902 31.4 20.5982 31.442 20.6822 31.526C20.7662 31.61 20.8082 31.718 20.8082 31.85V43.55C20.8082 43.67 20.7662 43.778 20.6822 43.874C20.5982 43.958 20.4902 44 20.3582 44H18.0182ZM28.0815 44.18C26.4255 44.168 25.1715 43.73 24.3195 42.866C23.4675 41.99 23.0055 40.844 22.9335 39.428C22.9095 38.78 22.8975 38.204 22.8975 37.7C22.8975 37.184 22.9095 36.59 22.9335 35.918C22.9815 35.018 23.1975 34.22 23.5815 33.524C23.9775 32.816 24.5535 32.258 25.3095 31.85C26.0655 31.43 26.9895 31.22 28.0815 31.22C29.7015 31.232 30.9495 31.67 31.8255 32.534C32.7015 33.398 33.1755 34.526 33.2475 35.918C33.2715 36.59 33.2835 37.184 33.2835 37.7C33.2835 38.204 33.2715 38.78 33.2475 39.428C33.1635 40.844 32.6955 41.99 31.8435 42.866C30.9915 43.73 29.7375 44.168 28.0815 44.18ZM28.0815 41.57C28.6695 41.57 29.1075 41.378 29.3955 40.994C29.6955 40.598 29.8575 40.046 29.8815 39.338C29.9055 38.99 29.9175 38.432 29.9175 37.664C29.9175 36.896 29.9055 36.35 29.8815 36.026C29.8575 35.342 29.7015 34.802 29.4135 34.406C29.1255 34.01 28.6815 33.806 28.0815 33.794C27.4935 33.806 27.0495 34.01 26.7495 34.406C26.4615 34.802 26.3055 35.342 26.2815 36.026C26.2695 36.35 26.2635 36.896 26.2635 37.664C26.2635 38.432 26.2695 38.99 26.2815 39.338C26.3415 40.826 26.9415 41.57 28.0815 41.57ZM40.3159 44.18C38.6599 44.168 37.4059 43.73 36.5539 42.866C35.7019 41.99 35.2399 40.844 35.1679 39.428C35.1439 38.78 35.1319 38.204 35.1319 37.7C35.1319 37.184 35.1439 36.59 35.1679 35.918C35.2159 35.018 35.4319 34.22 35.8159 33.524C36.2119 32.816 36.7879 32.258 37.5439 31.85C38.2999 31.43 39.2239 31.22 40.3159 31.22C41.9359 31.232 43.1839 31.67 44.0599 32.534C44.9359 33.398 45.4099 34.526 45.4819 35.918C45.5059 36.59 45.5179 37.184 45.5179 37.7C45.5179 38.204 45.5059 38.78 45.4819 39.428C45.3979 40.844 44.9299 41.99 44.0779 42.866C43.2259 43.73 41.9719 44.168 40.3159 44.18ZM40.3159 41.57C40.9039 41.57 41.3419 41.378 41.6299 40.994C41.9299 40.598 42.0919 40.046 42.1159 39.338C42.1399 38.99 42.1519 38.432 42.1519 37.664C42.1519 36.896 42.1399 36.35 42.1159 36.026C42.0919 35.342 41.9359 34.802 41.6479 34.406C41.3599 34.01 40.9159 33.806 40.3159 33.794C39.7279 33.806 39.2839 34.01 38.9839 34.406C38.6959 34.802 38.5399 35.342 38.5159 36.026C38.5039 36.35 38.4979 36.896 38.4979 37.664C38.4979 38.432 38.5039 38.99 38.5159 39.338C38.5759 40.826 39.1759 41.57 40.3159 41.57ZM49.9042 37.754C49.0882 37.754 48.4342 37.544 47.9422 37.124C47.4502 36.692 47.1802 36.116 47.1322 35.396C47.1082 35.036 47.0962 34.784 47.0962 34.64C47.0962 34.496 47.1082 34.184 47.1322 33.704C47.1682 32.972 47.4262 32.39 47.9062 31.958C48.3862 31.526 49.0522 31.31 49.9042 31.31C50.7442 31.31 51.4042 31.526 51.8842 31.958C52.3642 32.39 52.6222 32.972 52.6582 33.704C52.6822 34.184 52.6942 34.496 52.6942 34.64C52.6942 34.784 52.6822 35.036 52.6582 35.396C52.6102 36.116 52.3402 36.692 51.8482 37.124C51.3562 37.544 50.7082 37.754 49.9042 37.754ZM48.4642 44C48.3442 44 48.2422 43.97 48.1582 43.91C48.0862 43.838 48.0502 43.748 48.0502 43.64C48.0502 43.568 48.0742 43.502 48.1222 43.442L57.0142 31.742C57.1102 31.622 57.2002 31.538 57.2842 31.49C57.3682 31.43 57.4882 31.4 57.6442 31.4H58.9222C59.0422 31.4 59.1382 31.436 59.2102 31.508C59.2942 31.568 59.3362 31.652 59.3362 31.76C59.3362 31.832 59.3122 31.898 59.2642 31.958L50.3722 43.658C50.2762 43.778 50.1862 43.868 50.1022 43.928C50.0182 43.976 49.8982 44 49.7422 44H48.4642ZM49.9042 36.188C50.4082 36.188 50.6842 35.894 50.7322 35.306C50.7562 34.922 50.7682 34.67 50.7682 34.55C50.7682 34.394 50.7562 34.148 50.7322 33.812C50.7202 33.548 50.6422 33.332 50.4982 33.164C50.3662 32.996 50.1682 32.912 49.9042 32.912C49.6282 32.912 49.4242 32.996 49.2922 33.164C49.1602 33.332 49.0822 33.548 49.0582 33.812C49.0462 33.98 49.0402 34.226 49.0402 34.55C49.0402 34.862 49.0462 35.114 49.0582 35.306C49.1062 35.894 49.3882 36.188 49.9042 36.188ZM57.5182 44.09C56.7022 44.09 56.0482 43.88 55.5562 43.46C55.0762 43.028 54.8062 42.446 54.7462 41.714C54.7342 41.51 54.7282 41.234 54.7282 40.886C54.7282 40.526 54.7342 40.238 54.7462 40.022C54.7942 39.278 55.0522 38.69 55.5202 38.258C56.0002 37.826 56.6662 37.61 57.5182 37.61C58.3702 37.61 59.0302 37.826 59.4982 38.258C59.9782 38.69 60.2422 39.278 60.2902 40.022C60.3142 40.502 60.3262 40.814 60.3262 40.958C60.3262 41.102 60.3142 41.354 60.2902 41.714C60.2422 42.434 59.9722 43.01 59.4802 43.442C58.9882 43.874 58.3342 44.09 57.5182 44.09ZM57.5182 42.506C57.7942 42.506 57.9982 42.422 58.1302 42.254C58.2622 42.074 58.3402 41.858 58.3642 41.606C58.3882 41.246 58.4002 40.994 58.4002 40.85C58.4002 40.694 58.3882 40.448 58.3642 40.112C58.3402 39.86 58.2622 39.65 58.1302 39.482C57.9982 39.302 57.7942 39.212 57.5182 39.212C57.2422 39.212 57.0382 39.302 56.9062 39.482C56.7742 39.65 56.7022 39.86 56.6902 40.112C56.6782 40.28 56.6722 40.526 56.6722 40.85C56.6722 41.174 56.6782 41.426 56.6902 41.606C56.7142 41.87 56.7862 42.086 56.9062 42.254C57.0382 42.422 57.2422 42.506 57.5182 42.506Z" fill="white"/>
</g>
<defs>
<clipPath id="clip0">
<rect width="74" height="74" fill="white"/>
</clipPath>
</defs>
</svg>
