<svg width="66" height="66" viewBox="0 0 66 66" fill="none" xmlns="http://www.w3.org/2000/svg">
<path d="M56.2798 25.4556V22.983C56.2798 17.065 54.0641 11.5659 50.0471 7.48547C45.9301 3.29694 40.2691 1 34.0936 1H31.935C25.7594 1 20.0985 3.29694 15.9815 7.48547C11.9645 11.5659 9.74871 17.065 9.74871 22.983V25.4556C4.87402 25.7664 1 29.6036 1 34.2921V38.1563C1 43.0339 5.20281 47.0063 10.3634 47.0063H15.6384C16.5819 47.0063 17.3538 46.2767 17.3538 45.3849V27.05C17.3538 26.1582 16.5819 25.4286 15.6384 25.4286H13.1796V22.983C13.1796 12.2955 21.2421 4.24273 31.9207 4.24273H34.0793C44.7721 4.24273 52.8204 12.2955 52.8204 22.983V25.4286H50.3616C49.4181 25.4286 48.6462 26.1582 48.6462 27.05V45.3714C48.6462 46.2631 49.4181 46.9928 50.3616 46.9928H52.7632C52.0627 55.4509 45.9015 57.41 43.0424 57.8559C42.2562 55.5725 39.9832 53.9241 37.31 53.9241H33.0214C29.7049 53.9241 27.0031 56.4778 27.0031 59.6124C27.0031 62.747 29.7049 65.3142 33.0214 65.3142H37.3243C40.0976 65.3142 42.4277 63.5307 43.1282 61.1257C44.5291 60.9365 46.7449 60.4636 48.9464 59.2476C52.0484 57.5316 55.7223 54.0322 56.2084 46.9793C61.1116 46.6955 65 42.8448 65 38.1428V34.2785C65.0143 29.6036 61.1545 25.7529 56.2798 25.4556ZM13.9515 43.75H10.392C7.11838 43.75 4.45946 41.2369 4.45946 38.1428V34.2785C4.45946 31.1844 7.11838 28.6713 10.392 28.6713H13.9515V43.75ZM37.3243 62.0715H33.0214C31.5919 62.0715 30.434 60.9771 30.434 59.6259C30.434 58.2748 31.5919 57.1804 33.0214 57.1804H37.3243C38.7538 57.1804 39.9118 58.2748 39.9118 59.6259C39.9118 60.9771 38.7538 62.0715 37.3243 62.0715ZM61.5834 38.1428C61.5834 41.2369 58.9245 43.75 55.6509 43.75H52.0913V28.6713H55.6509C58.9245 28.6713 61.5834 31.1844 61.5834 34.2785V38.1428Z" fill="white" stroke="white"/>
</svg>
